<svg xmlns="http://www.w3.org/2000/svg" width="28" height="20" fill="none"><g filter="url(#a)"><path fill="#FFEFEF" d="M22.287 1.85a1.511 1.511 0 0 1 0 2.135l-3.882 3.918 2.116 9.255-1.407 1.43-3.873-7.483-3.892 3.928.36 2.488-1.068 1.067-1.757-3.202L5.7 13.603l1.058-1.088 2.495.373 3.863-3.898L5.7 5.052l1.418-1.42 9.171 2.136 3.883-3.918c.558-.584 1.556-.584 2.115 0Z"/><path stroke="#000" d="m5.466 5.494 6.82 3.622-3.21 3.24-2.244-.335-.253-.038-.18.184-1.057 1.087-.454.467.568.318 3.059 1.713 1.687 3.077.32.584.472-.471 1.068-1.068.177-.177-.036-.248-.323-2.24 3.233-3.264 3.557 6.873.316.612.484-.491 1.407-1.43.192-.195-.06-.267-2.055-8.988 3.686-3.72h.001c.785-.781.781-2.05.005-2.838-.756-.786-2.077-.786-2.832 0L16.13 5.217l-8.9-2.072-.27-.063-.197.197L5.346 4.7l-.477.478.597.317Z"/></g><defs><filter id="a" width="27.691" height="27.861" x=".038" y=".412" color-interpolation-filters="sRGB" filterUnits="userSpaceOnUse"><feFlood flood-opacity="0" result="BackgroundImageFix"/><feColorMatrix in="SourceAlpha" result="hardAlpha" values="0 0 0 0 0 0 0 0 0 0 0 0 0 0 0 0 0 0 127 0"/><feOffset dy="4"/><feGaussianBlur stdDeviation="2"/><feComposite in2="hardAlpha" operator="out"/><feColorMatrix values="0 0 0 0 0 0 0 0 0 0 0 0 0 0 0 0 0 0 0.25 0"/><feBlend in2="BackgroundImageFix" result="effect1_dropShadow_1_53"/><feBlend in="SourceGraphic" in2="effect1_dropShadow_1_53" result="shape"/></filter></defs></svg>