<svg xmlns="http://www.w3.org/2000/svg" width="24" height="24" fill="none"><mask id="a" fill="#fff"><path d="M16.886 14.932h-1.037l-.368-.357a8.617 8.617 0 0 0 2.06-5.603c0-1.702-.5-3.367-1.437-4.782a8.548 8.548 0 0 0-3.829-3.171 8.46 8.46 0 0 0-4.928-.49 8.507 8.507 0 0 0-4.368 2.356A8.633 8.633 0 0 0 .644 7.293c-.33 1.67-.16 3.4.485 4.974a8.592 8.592 0 0 0 3.142 3.863 8.476 8.476 0 0 0 4.74 1.45 8.448 8.448 0 0 0 5.552-2.078l.354.37v1.047l6.562 6.608 1.956-1.973-6.55-6.622Zm-7.875 0c-3.268 0-5.906-2.662-5.906-5.96s2.638-5.96 5.906-5.96 5.906 2.662 5.906 5.96-2.638 5.96-5.906 5.96Z"/></mask><path fill="#fff" d="M16.886 14.932 28.973 2.978l-4.99-5.046h-7.098v17Zm-1.037 0L3.993 27.116l4.95 4.816h6.906v-17Zm-.368-.357L2.556 3.532l-10.35 12.114 11.42 11.112L15.48 14.575Zm2.06-5.603h-17v.012l17-.012Zm-8.53 8.609v-17 17Zm5.552-2.08 12.29-11.744L15.66-7.956 3.424 2.66l11.14 12.842Zm.354.371h17V9.056l-4.71-4.928-12.29 11.744Zm0 1.047h-17v7.006l4.936 4.972 12.064-11.978Zm6.562 6.608L9.416 35.507 21.49 47.667l12.063-12.173L21.48 23.528Zm1.956-1.973L35.51 33.52l11.846-11.954L35.522 9.6 23.435 21.554Zm-6.55-23.622H15.85v34h1.037v-34Zm10.82 4.816-.368-.357L3.625 26.758l.368.358L27.704 2.748Zm.701 22.87A25.617 25.617 0 0 0 34.542 8.96l-34 .024a8.384 8.384 0 0 1 2.014-5.452l25.85 22.085Zm6.136-16.646c0-5.03-1.478-9.96-4.264-14.168L1.93 13.574A8.335 8.335 0 0 1 .542 8.973h34ZM30.278-5.196a25.548 25.548 0 0 0-11.446-9.47L5.719 16.704a8.453 8.453 0 0 1-3.79-3.13l28.35-18.77Zm-11.446-9.47A25.46 25.46 0 0 0 4-16.139l6.691 33.335a8.541 8.541 0 0 1-4.973-.492l13.113-31.37ZM4-16.139A25.507 25.507 0 0 0-9.097-9.08L15.054 14.85a8.492 8.492 0 0 1-4.362 2.345L4.001-16.139ZM-9.097-9.08a25.632 25.632 0 0 0-6.938 13.086l33.358 6.575a8.366 8.366 0 0 1-2.269 4.271L-9.096-9.081Zm-6.938 13.086a25.682 25.682 0 0 0 1.438 14.717l31.453-12.91a8.318 8.318 0 0 1 .467 4.768l-33.358-6.575Zm1.438 14.717a25.592 25.592 0 0 0 9.364 11.503l19.008-28.19a8.408 8.408 0 0 1 3.081 3.776l-31.453 12.91Zm9.364 11.503a25.476 25.476 0 0 0 14.244 4.356v-34c1.71 0 3.368.512 4.764 1.454l-19.008 28.19Zm14.244 4.356c6.383 0 12.24-2.376 16.691-6.238L3.422 2.66A8.552 8.552 0 0 1 9.012.58v34Zm-6.74-7.335.355.371 24.582-23.49-.355-.37-24.581 23.49Zm-4.354-11.374v1.047h34v-1.047h-34Zm4.936 13.025 6.563 6.609 24.126-23.957-6.562-6.608L2.853 28.897Zm30.701 6.597 1.956-1.974L11.36 9.588l-1.956 1.973 24.15 23.933ZM35.522 9.6l-6.55-6.622L4.799 26.886l6.55 6.622L35.521 9.6ZM9.01-2.068c6.266 0 11.094 5.095 11.094 11.04h-34c0 12.54 10.104 22.96 22.906 22.96v-34Zm11.094 11.04c0 5.945-4.828 11.04-11.094 11.04v-34c-12.802 0-22.906 10.42-22.906 22.96h34ZM9.011 20.012c-6.266 0-11.094-5.095-11.094-11.04h34c0-12.54-10.104-22.96-22.906-22.96v34ZM-2.083 8.972c0-5.945 4.828-11.04 11.094-11.04v34c12.802 0 22.906-10.42 22.906-22.96h-34Z" mask="url(#a)"/></svg>