<svg xmlns="http://www.w3.org/2000/svg" width="48" height="51" fill="none"><g filter="url(#a)"><path fill="#fff" stroke="#fff" d="M12.958 35.31a2.555 2.555 0 0 0 .523 1.554l.002.002c.25.325.503.648.76.968h-1.17l-.317-.409a3.471 3.471 0 0 1-.714-2.114c0-1.714 1.236-3.195 2.945-3.444 6.709-.98 11.36-.893 18.044.032 1.69.233 2.927 1.69 2.927 3.386 0 .784-.27 1.544-.764 2.152-.11.134-.22.266-.329.396h-1.198c.276-.322.549-.648.818-.977.36-.44.556-.998.557-1.57a2.49 2.49 0 0 0-2.134-2.48h-.003c-6.609-.915-11.173-1-17.785-.033-1.244.181-2.161 1.263-2.162 2.536Zm0 0h.5l-.5-.002v.001Zm19.61 3.023h.667-.667ZM24 24.458a6.25 6.25 0 1 0 0-12.5 6.25 6.25 0 0 0 0 12.5Zm5.068-1.182A7.167 7.167 0 1 1 18.932 13.14a7.167 7.167 0 0 1 10.136 10.136Z"/><path fill="#010000" stroke="#000" stroke-width="83" d="M24 40.25c9.527 0 17.25-7.723 17.25-17.25 0-9.527-7.723-17.25-17.25-17.25-9.527 0-17.25 7.723-17.25 17.25 0 9.527 7.723 17.25 17.25 17.25Zm0 1.917c10.586 0 19.167-8.581 19.167-19.167 0-10.586-8.581-19.167-19.167-19.167C13.414 3.833 4.833 12.414 4.833 23c0 10.586 8.581 19.167 19.167 19.167Z"/></g><defs><filter id="a" width="54" height="54" x="-3" y="0" color-interpolation-filters="sRGB" filterUnits="userSpaceOnUse"><feFlood flood-opacity="0" result="BackgroundImageFix"/><feColorMatrix in="SourceAlpha" result="hardAlpha" values="0 0 0 0 0 0 0 0 0 0 0 0 0 0 0 0 0 0 127 0"/><feOffset dy="4"/><feGaussianBlur stdDeviation="2"/><feComposite in2="hardAlpha" operator="out"/><feColorMatrix values="0 0 0 0 0 0 0 0 0 0 0 0 0 0 0 0 0 0 0.25 0"/><feBlend in2="BackgroundImageFix" result="effect1_dropShadow_1_66"/><feBlend in="SourceGraphic" in2="effect1_dropShadow_1_66" result="shape"/></filter></defs></svg>