<svg xmlns="http://www.w3.org/2000/svg" width="26" height="29" fill="none"><path fill="#fff" stroke="#fff" d="M1.958 25.31a2.554 2.554 0 0 0 .523 1.555h.001c.25.327.504.65.761.97h-1.17l-.317-.41a3.471 3.471 0 0 1-.714-2.114c0-1.714 1.236-3.195 2.945-3.444 6.709-.98 11.36-.893 18.044.032 1.69.233 2.927 1.69 2.927 3.386 0 .784-.27 1.544-.764 2.152l-.328.396h-1.199c.276-.322.549-.648.818-.977.36-.44.556-.998.557-1.57a2.49 2.49 0 0 0-2.134-2.48h-.003c-6.609-.915-11.173-1-17.785-.033-1.244.181-2.161 1.263-2.162 2.536Zm0 0h.5l-.5-.002v.001Zm19.61 3.023h.667-.667ZM13 14.458a6.25 6.25 0 1 0 0-12.5 6.25 6.25 0 0 0 0 12.5Zm5.068-1.182A7.167 7.167 0 1 1 7.932 3.14a7.167 7.167 0 0 1 10.136 10.136Z"/></svg>